<svg xmlns="http://www.w3.org/2000/svg" width="1200" height="900" viewBox="0 0 1200 900">
<defs>
  <linearGradient id="bgR" x1="0" x2="1"><stop offset="0" stop-color="#160b28"/><stop offset="1" stop-color="#35132f"/></linearGradient>
  <filter id="shadowR"><feDropShadow dx="0" dy="2" stdDeviation="4" flood-color="#000" flood-opacity=".35"/></filter>
</defs>
<rect width="1200" height="900" fill="url(#bgR)"/>
<g font-family="Arial, sans-serif">
  <rect x="20" y="20" width="390" height="56" rx="8" fill="#1d1234" stroke="#6d245f"/>
  <text x="38" y="56" font-size="24" font-weight="700" fill="#f4ecfb">MODEST'S RETAIL SALES DASHBOARD</text>

  <rect x="430" y="20" width="230" height="56" rx="8" fill="#26143b" stroke="#6d245f"/>
  <text x="448" y="41" font-size="10" fill="#cbb7dc">DATE RANGE</text>
  <rect x="448" y="47" width="92" height="20" rx="3" fill="#1d1234" stroke="#8a487d"/><text x="458" y="61" font-size="10" fill="#fff">01/01/2025</text>
  <rect x="550" y="47" width="92" height="20" rx="3" fill="#1d1234" stroke="#8a487d"/><text x="560" y="61" font-size="10" fill="#fff">12/31/2025</text>

  <rect x="675" y="20" width="220" height="56" rx="8" fill="#26143b" stroke="#6d245f"/>
  <rect x="692" y="40" width="43" height="24" rx="2" fill="#fff" stroke="#694b71"/><text x="713" y="56" text-anchor="middle" font-size="9" fill="#553a5d">Qtr 1</text><rect x="741" y="40" width="43" height="24" rx="2" fill="#fff" stroke="#694b71"/><text x="762" y="56" text-anchor="middle" font-size="9" fill="#553a5d">Qtr 2</text><rect x="790" y="40" width="43" height="24" rx="2" fill="#fff" stroke="#694b71"/><text x="811" y="56" text-anchor="middle" font-size="9" fill="#553a5d">Qtr 3</text><rect x="839" y="40" width="43" height="24" rx="2" fill="#f0f0f0" stroke="#694b71"/><text x="860" y="56" text-anchor="middle" font-size="9" fill="#553a5d">Qtr 4</text>

  <rect x="910" y="20" width="270" height="56" rx="8" fill="#26143b" stroke="#6d245f"/>
  <text x="926" y="41" font-size="10" fill="#cbb7dc">SELECT REGION</text>
  <rect x="926" y="47" width="235" height="20" rx="3" fill="#1d1234" stroke="#8a487d"/><text x="938" y="61" font-size="10" fill="#fff">All Regions ▾</text>

  <rect x="25" y="95" width="250" height="105" rx="8" fill="#211336" stroke="#69245e" filter="url(#shadowR)"/>
  <text x="150" y="127" text-anchor="middle" font-size="12" fill="#d5c7e1">REVENUE</text>
  <text x="150" y="172" text-anchor="middle" font-size="30" font-weight="700" fill="#fff">$140,051</text><rect x="305" y="95" width="250" height="105" rx="8" fill="#211336" stroke="#69245e" filter="url(#shadowR)"/>
  <text x="430" y="127" text-anchor="middle" font-size="12" fill="#d5c7e1">UNITS SOLD</text>
  <text x="430" y="172" text-anchor="middle" font-size="30" font-weight="700" fill="#fff">1,655</text><rect x="585" y="95" width="250" height="105" rx="8" fill="#211336" stroke="#69245e" filter="url(#shadowR)"/>
  <text x="710" y="127" text-anchor="middle" font-size="12" fill="#d5c7e1">GROSS PROFIT</text>
  <text x="710" y="172" text-anchor="middle" font-size="30" font-weight="700" fill="#fff">$61,518</text><rect x="865" y="95" width="250" height="105" rx="8" fill="#211336" stroke="#69245e" filter="url(#shadowR)"/>
  <text x="990" y="127" text-anchor="middle" font-size="12" fill="#d5c7e1">GROSS MARGIN</text>
  <text x="990" y="172" text-anchor="middle" font-size="30" font-weight="700" fill="#fff">43.9%</text>

  <rect x="25" y="220" width="385" height="320" rx="8" fill="#251638" stroke="#64265d"/>
  <text x="43" y="247" font-size="14" font-weight="700" fill="#fff">Top Stores by Revenue</text>
  <text x="46" y="334" font-size="11" fill="#f5eefb">Washington DC</text><rect x="175" y="320" width="160" height="20" rx="2" fill="#1495ff"/><text x="345" y="334" text-anchor="end" font-size="10" fill="#cab9db">$38,866</text><text x="46" y="376" font-size="11" fill="#f5eefb">Baltimore Central</text><rect x="175" y="362" width="158.64316751848722" height="20" rx="2" fill="#1495ff"/><text x="345" y="376" text-anchor="end" font-size="10" fill="#cab9db">$38,536</text><text x="46" y="418" font-size="11" fill="#f5eefb">Silver Spring</text><rect x="175" y="404" width="135.41856973235886" height="20" rx="2" fill="#1495ff"/><text x="345" y="418" text-anchor="end" font-size="10" fill="#cab9db">$32,895</text><text x="46" y="460" font-size="11" fill="#f5eefb">Alexandria</text><rect x="175" y="446" width="122.49351437682166" height="20" rx="2" fill="#1495ff"/><text x="345" y="460" text-anchor="end" font-size="10" fill="#cab9db">$29,755</text>

  <rect x="425" y="220" width="750" height="320" rx="8" fill="#251638" stroke="#64265d"/>
  <text x="800" y="247" text-anchor="middle" font-size="14" font-weight="700" fill="#fff">Profit by Month</text>
  <line x1="570" y1="410" x2="1140" y2="410" stroke="#563a60"/>
  <text x="550" y="305" font-size="10" fill="#bfaecf">$8,190</text>
  <text x="550" y="410" font-size="10" fill="#bfaecf">$0</text>
  <rect x="590" y="316.9080350615317" width="24" height="93.09196493846831" rx="3" fill="#1597ff"/><text x="602" y="432" text-anchor="middle" font-size="10" fill="#d7c8e8" transform="rotate(-45 602 432)">01</text><rect x="629" y="307.8582208852076" width="24" height="102.14177911479241" rx="3" fill="#1597ff"/><text x="641" y="432" text-anchor="middle" font-size="10" fill="#d7c8e8" transform="rotate(-45 641 432)">02</text><rect x="668" y="279.75597405947275" width="24" height="130.24402594052725" rx="3" fill="#1597ff"/><text x="680" y="432" text-anchor="middle" font-size="10" fill="#d7c8e8" transform="rotate(-45 680 432)">03</text><rect x="707" y="326.10135304056377" width="24" height="83.89864695943623" rx="3" fill="#1597ff"/><text x="719" y="432" text-anchor="middle" font-size="10" fill="#d7c8e8" transform="rotate(-45 719 432)">04</text><rect x="746" y="335.64396031081014" width="24" height="74.35603968918986" rx="3" fill="#1597ff"/><text x="758" y="432" text-anchor="middle" font-size="10" fill="#d7c8e8" transform="rotate(-45 758 432)">05</text><rect x="785" y="328.9369670828812" width="24" height="81.06303291711882" rx="3" fill="#1597ff"/><text x="797" y="432" text-anchor="middle" font-size="10" fill="#d7c8e8" transform="rotate(-45 797 432)">06</text><rect x="824" y="321.2215985872822" width="24" height="88.77840141271781" rx="3" fill="#1597ff"/><text x="836" y="432" text-anchor="middle" font-size="10" fill="#d7c8e8" transform="rotate(-45 836 432)">07</text><rect x="863" y="331.7718778188345" width="24" height="78.22812218116546" rx="3" fill="#1597ff"/><text x="875" y="432" text-anchor="middle" font-size="10" fill="#d7c8e8" transform="rotate(-45 875 432)">08</text><rect x="902" y="316.9559673438738" width="24" height="93.04403265612619" rx="3" fill="#1597ff"/><text x="914" y="432" text-anchor="middle" font-size="10" fill="#d7c8e8" transform="rotate(-45 914 432)">09</text><rect x="941" y="311.6063456305108" width="24" height="98.39365436948918" rx="3" fill="#1597ff"/><text x="953" y="432" text-anchor="middle" font-size="10" fill="#d7c8e8" transform="rotate(-45 953 432)">10</text><rect x="980" y="291.39734520162824" width="24" height="118.60265479837176" rx="3" fill="#1597ff"/><text x="992" y="432" text-anchor="middle" font-size="10" fill="#d7c8e8" transform="rotate(-45 992 432)">11</text><rect x="1019" y="250" width="24" height="160" rx="3" fill="#1597ff"/><text x="1031" y="432" text-anchor="middle" font-size="10" fill="#d7c8e8" transform="rotate(-45 1031 432)">12</text>

  <rect x="25" y="555" width="650" height="325" rx="8" fill="#251638" stroke="#64265d"/>
  <text x="43" y="582" font-size="14" font-weight="700" fill="#fff">Quantity by Category</text>
  <path d="M 468 600 A 90 90 0 0 1 557.3262588223786 700.9917917009661 L 519.6107273195965 696.3508129827804 A 52 52 0 0 0 468 638 Z" fill="#1697ff"/><path d="M 557.3262588223786 700.9917917009661 A 90 90 0 0 1 453.5413659788893 778.8310075494114 L 459.64612256558047 741.3245821396599 A 52 52 0 0 0 519.6107273195965 696.3508129827804 Z" fill="#ff7a45"/><path d="M 453.5413659788893 778.8310075494114 A 90 90 0 0 1 378.42971925764334 681.215649839891 L 416.2482822377495 684.9245976852703 A 52 52 0 0 0 459.64612256558047 741.3245821396599 Z" fill="#f7c600"/><path d="M 378.42971925764334 681.215649839891 A 90 90 0 0 1 468 600 L 468 638 A 52 52 0 0 0 416.2482822377495 684.9245976852703 Z" fill="#55e000"/>
  <text x="468" y="688" text-anchor="middle" font-size="13" fill="#c9bad8">Units</text>
  <text x="468" y="712" text-anchor="middle" font-size="22" font-weight="700" fill="#fff">1655</text>
  <rect x="345" y="805" width="10" height="10" fill="#1697ff"/><text x="360" y="814" font-size="10" fill="#d9cce6">Electronics 27%</text><rect x="345" y="823" width="10" height="10" fill="#ff7a45"/><text x="360" y="832" font-size="10" fill="#d9cce6">Office 26%</text><rect x="345" y="841" width="10" height="10" fill="#f7c600"/><text x="360" y="850" font-size="10" fill="#d9cce6">Apparel 24%</text><rect x="345" y="859" width="10" height="10" fill="#55e000"/><text x="360" y="868" font-size="10" fill="#d9cce6">Home 23%</text>

  <rect x="690" y="555" width="485" height="325" rx="8" fill="#251638" stroke="#64265d"/>
  <text x="708" y="582" font-size="14" font-weight="700" fill="#fff">Profit by Product</text>
  <text x="715" y="628" font-size="11" fill="#f3eaf8">Standing Desk</text><rect x="850" y="615" width="250" height="18" rx="2" fill="#17a2ff"/><text x="1115" y="628" text-anchor="end" font-size="10" fill="#cab9db">$16,591</text><text x="715" y="665" font-size="11" fill="#f3eaf8">Office Chair</text><rect x="850" y="652" width="153.39854841089016" height="18" rx="2" fill="#55e000"/><text x="1115" y="665" text-anchor="end" font-size="10" fill="#cab9db">$10,180</text><text x="715" y="702" font-size="11" fill="#f3eaf8">Running Shoes</text><rect x="850" y="689" width="94.93700021291498" height="18" rx="2" fill="#ff7a45"/><text x="1115" y="702" text-anchor="end" font-size="10" fill="#cab9db">$6,300</text><text x="715" y="739" font-size="11" fill="#f3eaf8">Air Fryer</text><rect x="850" y="726" width="84.85010286371434" height="18" rx="2" fill="#f7c600"/><text x="1115" y="739" text-anchor="end" font-size="10" fill="#cab9db">$5,631</text><text x="715" y="776" font-size="11" fill="#f3eaf8">Mechanical Keyboard</text><rect x="850" y="763" width="68.07179017821421" height="18" rx="2" fill="#ff3030"/><text x="1115" y="776" text-anchor="end" font-size="10" fill="#cab9db">$4,518</text>
</g>
</svg>